<svg width="146" height="40" fill="none" xmlns="http://www.w3.org/2000/svg"><rect width="146" height="40" rx="5" fill="url(#a)"/><path d="M38.632 26a.37.37 0 0 1-.272-.112.37.37 0 0 1-.112-.272V15.2c0-.117.032-.213.096-.288a.39.39 0 0 1 .288-.112h8.384a.39.39 0 0 1 .288.112.39.39 0 0 1 .112.288v10.416a.39.39 0 0 1-.112.288.427.427 0 0 1-.288.096h-1.44a.37.37 0 0 1-.272-.112.37.37 0 0 1-.112-.272V16.8h-4.72v8.816a.37.37 0 0 1-.112.272.339.339 0 0 1-.272.112h-1.456Zm14.76.16c-1.248 0-2.213-.32-2.896-.96-.682-.65-1.05-1.536-1.104-2.656l-.016-.704.016-.704c.054-1.11.427-1.99 1.12-2.64.694-.65 1.654-.976 2.88-.976 1.227 0 2.187.325 2.88.976.694.65 1.067 1.53 1.12 2.64.01.128.016.363.016.704 0 .341-.005.576-.016.704-.053 1.12-.421 2.005-1.104 2.656-.682.64-1.648.96-2.896.96Zm0-1.584c.566 0 1.003-.176 1.312-.528.31-.363.48-.89.512-1.584.01-.107.016-.315.016-.624 0-.31-.005-.517-.016-.624-.032-.693-.202-1.216-.512-1.568-.31-.363-.746-.544-1.312-.544-.565 0-1.002.181-1.312.544-.31.352-.48.875-.512 1.568l-.016.624.016.624c.032.693.203 1.221.512 1.584.31.352.747.528 1.312.528Zm5.469 3.184a.37.37 0 0 1-.272-.112.339.339 0 0 1-.112-.272v-2.688a.37.37 0 0 1 .112-.272.37.37 0 0 1 .272-.112h.128c.416 0 .72-.33.912-.992.192-.661.288-1.69.288-3.088v-2.16c0-.117.037-.208.112-.272a.37.37 0 0 1 .272-.112h5.696c.117 0 .208.037.272.112a.339.339 0 0 1 .112.272v6.224h.72c.117 0 .208.037.272.112a.339.339 0 0 1 .112.272v2.704a.339.339 0 0 1-.112.272.339.339 0 0 1-.272.112h-1.312a.39.39 0 0 1-.288-.112.37.37 0 0 1-.112-.272V26h-5.088v1.376a.339.339 0 0 1-.112.272.339.339 0 0 1-.272.112h-1.328Zm5.712-3.472v-4.912h-2.368v1.072c0 1.835-.25 3.12-.752 3.856l3.12-.016ZM69.612 26a.37.37 0 0 1-.272-.112.37.37 0 0 1-.112-.272v-7.552a.37.37 0 0 1 .112-.272.37.37 0 0 1 .272-.112h6.848c.117 0 .208.037.272.112a.339.339 0 0 1 .112.272v7.552a.37.37 0 0 1-.112.272.339.339 0 0 1-.272.112h-1.328a.37.37 0 0 1-.272-.112.37.37 0 0 1-.112-.272v-6.24h-3.424v6.24a.37.37 0 0 1-.112.272.339.339 0 0 1-.272.112h-1.328Zm16.981-8.32c.096 0 .181.037.256.112a.303.303 0 0 1 .112.24v7.584a.37.37 0 0 1-.112.272.37.37 0 0 1-.272.112H85.25a.37.37 0 0 1-.272-.112.37.37 0 0 1-.112-.272V20.48l-3.84 5.264a.466.466 0 0 1-.432.256h-1.216a.382.382 0 0 1-.256-.096.37.37 0 0 1-.112-.272v-7.568a.37.37 0 0 1 .112-.272.37.37 0 0 1 .272-.112h1.328c.117 0 .208.037.272.112a.339.339 0 0 1 .112.272v5.152l3.84-5.28c.118-.17.262-.256.432-.256h1.216Zm5.985 8.48c-1.174 0-2.112-.325-2.816-.976-.694-.65-1.061-1.552-1.104-2.704l-.016-.64.016-.64c.043-1.152.41-2.053 1.104-2.704.704-.65 1.642-.976 2.816-.976.832 0 1.536.15 2.112.448.587.299 1.019.667 1.296 1.104.288.427.442.832.464 1.216a.305.305 0 0 1-.112.272.37.37 0 0 1-.272.112h-1.408a.455.455 0 0 1-.256-.064.884.884 0 0 1-.16-.256c-.16-.416-.374-.715-.64-.896-.256-.181-.587-.272-.992-.272-.544 0-.97.176-1.28.528-.31.341-.475.864-.496 1.568l-.016.592.016.528c.042 1.397.635 2.096 1.776 2.096.416 0 .752-.09 1.008-.272.256-.181.464-.48.624-.896a.66.66 0 0 1 .16-.24.387.387 0 0 1 .256-.08h1.408a.37.37 0 0 1 .272.112.305.305 0 0 1 .112.272c-.022.373-.17.773-.448 1.2-.277.427-.704.795-1.28 1.104-.576.31-1.29.464-2.144.464Zm7.957 0a3.523 3.523 0 0 1-1.504-.32 2.86 2.86 0 0 1-1.073-.896 2.132 2.132 0 0 1-.383-1.232c0-.725.293-1.312.88-1.76.586-.448 1.392-.752 2.416-.912l2.192-.32v-.336c0-.47-.118-.821-.352-1.056-.235-.235-.614-.352-1.136-.352-.352 0-.64.07-.864.208a2.639 2.639 0 0 0-.512.384c-.128.139-.214.23-.257.272-.042.128-.122.192-.24.192h-1.231a.382.382 0 0 1-.257-.096.346.346 0 0 1-.096-.256c.011-.267.14-.57.385-.912.255-.341.645-.635 1.168-.88.522-.245 1.162-.368 1.92-.368 1.258 0 2.176.283 2.752.848.576.565.864 1.307.864 2.224v5.024a.373.373 0 0 1-.112.272.34.34 0 0 1-.272.112h-1.296a.369.369 0 0 1-.272-.112.369.369 0 0 1-.112-.272v-.624c-.235.341-.571.624-1.008.848-.427.213-.96.32-1.6.32Zm.544-1.52c.586 0 1.066-.192 1.44-.576.373-.384.56-.944.56-1.68v-.336l-1.6.256c-.619.096-1.088.25-1.408.464-.31.213-.465.475-.465.784a.91.91 0 0 0 .433.8c.288.192.634.288 1.04.288Zm8.724 1.36a.37.37 0 0 1-.272-.112.369.369 0 0 1-.112-.272v-6.24h-2.608a.37.37 0 0 1-.272-.112.389.389 0 0 1-.112-.288v-.912c0-.117.037-.208.112-.272a.37.37 0 0 1 .272-.112h7.264a.39.39 0 0 1 .288.112.369.369 0 0 1 .112.272v.912a.424.424 0 0 1-.112.288.39.39 0 0 1-.288.112h-2.592v6.24a.369.369 0 0 1-.112.272.34.34 0 0 1-.272.112h-1.296Zm9.541.16c-1.174 0-2.112-.325-2.816-.976-.694-.65-1.062-1.552-1.104-2.704l-.016-.64.016-.64c.042-1.152.41-2.053 1.104-2.704.704-.65 1.642-.976 2.816-.976.832 0 1.536.15 2.112.448.586.299 1.018.667 1.296 1.104.288.427.442.832.464 1.216a.307.307 0 0 1-.112.272.372.372 0 0 1-.272.112h-1.408a.454.454 0 0 1-.256-.064.865.865 0 0 1-.16-.256c-.16-.416-.374-.715-.64-.896-.256-.181-.587-.272-.992-.272-.544 0-.971.176-1.28.528-.31.341-.475.864-.496 1.568l-.016.592.016.528c.042 1.397.634 2.096 1.776 2.096.416 0 .752-.09 1.008-.272.256-.181.464-.48.624-.896a.649.649 0 0 1 .16-.24.387.387 0 0 1 .256-.08h1.408c.106 0 .197.037.272.112a.307.307 0 0 1 .112.272c-.022.373-.171.773-.449 1.2-.277.427-.703.795-1.279 1.104-.576.31-1.291.464-2.144.464Zm12.18-8.48a.34.34 0 0 1 .272.112.338.338 0 0 1 .112.272v7.552a.369.369 0 0 1-.112.272.34.34 0 0 1-.272.112h-1.36a.37.37 0 0 1-.272-.112.369.369 0 0 1-.112-.272v-2.448h-1.424l-1.584 2.592c-.096.16-.229.24-.4.24h-1.328a.326.326 0 0 1-.24-.096.307.307 0 0 1-.096-.224c0-.096.032-.181.096-.256l1.68-2.64c-.501-.213-.88-.523-1.136-.928-.256-.416-.384-.907-.384-1.472 0-.896.277-1.568.832-2.016.565-.459 1.387-.688 2.464-.688h3.264Zm-1.712 1.52h-1.504c-.501 0-.869.09-1.104.272-.224.181-.336.485-.336.912 0 .395.112.704.336.928.224.224.56.336 1.008.336h1.6V19.2ZM20 10.313A9.686 9.686 0 0 0 10.312 20 9.686 9.686 0 0 0 20 29.688 9.686 9.686 0 0 0 29.688 20 9.686 9.686 0 0 0 20 10.312Zm4.758 6.636-1.59 7.493c-.117.531-.434.66-.875.41l-2.422-1.785-1.168 1.125c-.129.129-.238.238-.488.238l.172-2.465 4.488-4.055c.196-.172-.043-.27-.301-.098l-5.547 3.492-2.39-.746c-.52-.164-.532-.52.109-.77l9.34-3.601c.433-.156.812.105.672.762Z" fill="#fff"/><defs><linearGradient id="a" x1="22" y1="0" x2="125.5" y2="0" gradientUnits="userSpaceOnUse"><stop stop-color="#1E96C8"/><stop offset="1" stop-color="#37AEE2"/></linearGradient></defs></svg>